<?xml version="1.0" encoding="utf-8"?>
<!-- Generator: Adobe Illustrator 22.0.1, SVG Export Plug-In . SVG Version: 6.00 Build 0)  -->
<svg version="1.1" id="Capa_1" xmlns="http://www.w3.org/2000/svg" xmlns:xlink="http://www.w3.org/1999/xlink" x="0px" y="0px"
	 viewBox="0 0 512 512" style="enable-background:new 0 0 512 512;" xml:space="preserve">
<style type="text/css">
	.st0{fill:#FFFFFF;}
</style>
<g>
	<g>
		<path class="st0" d="M226.8,89.7C215.3,32.5,159.4-4.6,102.2,6.9C74.5,12.5,50.7,28.5,35,52.1c-15.7,23.6-21.2,51.8-15.6,79.4
			C25,159.2,41,183,64.6,198.7c17.6,11.7,37.8,17.7,58.4,17.7c7,0,14-0.7,21.1-2.1C201.2,202.8,238.3,146.9,226.8,89.7z
			 M125.9,124.7c-7.8,1.6-15.4-3.5-17-11.3s3.5-15.4,11.3-17c7.8-1.6,15.4,3.5,17,11.3C138.8,115.6,133.7,123.2,125.9,124.7z"/>
	</g>
</g>
<g>
	<g>
		<path class="st0" d="M492.6,380.5c-5.6-27.7-21.6-51.5-45.2-67.2c-23.6-15.7-51.8-21.2-79.4-15.6c-57.2,11.5-94.3,67.4-82.8,124.6
			c10.1,50.2,54.4,84.9,103.7,84.9c6.9,0,13.9-0.7,20.9-2.1c27.7-5.6,51.5-21.6,67.2-45.2C492.6,436.3,498.2,408.1,492.6,380.5z
			 M391.8,415.5c-7.8,1.6-15.4-3.5-17-11.3c-1.6-7.8,3.5-15.4,11.3-17c7.8-1.6,15.4,3.5,17,11.3
			C404.6,406.3,399.5,413.9,391.8,415.5z"/>
	</g>
</g>
<g>
	<g>
		<path class="st0" d="M421.1,7.7c-10.2-6.8-22.4-9.2-34.3-6.7c-12,2.4-22.3,9.3-29,19.5L78.2,441c-13.9,21-8.2,49.4,12.8,63.3
			c7.6,5,16.3,7.7,25.2,7.7c3,0,6.1-0.3,9.1-0.9c12-2.4,22.3-9.3,29-19.5L433.8,71C447.8,50,442,21.6,421.1,7.7z"/>
	</g>
</g>
</svg>
