<?xml version="1.0" encoding="utf-8"?>
<!-- Generator: Adobe Illustrator 22.0.1, SVG Export Plug-In . SVG Version: 6.00 Build 0)  -->
<svg version="1.1" id="Layer_1" xmlns="http://www.w3.org/2000/svg" xmlns:xlink="http://www.w3.org/1999/xlink" x="0px" y="0px"
	 viewBox="0 0 512 512" style="enable-background:new 0 0 512 512;" xml:space="preserve">
<style type="text/css">
	.st0{fill:#FFFFFF;}
</style>
<path class="st0" d="M496,512h-85.3c-8.8,0-16-7.2-16-16v-26.7h-64V496c0,8.8-7.2,16-16,16H197.3c-8.8,0-16-7.2-16-16v-26.7h-64V496
	c0,8.8-7.2,16-16,16H16c-8.8,0-16-7.2-16-16v-69.3h512V496C512,504.8,504.8,512,496,512z"/>
<path class="st0" d="M341.3,0h-64v42.7c0,11.8-9.6,21.3-21.3,21.3s-21.3-9.6-21.3-21.3V0h-64c-11.8,0-21.3,9.6-21.3,21.3v128
	c0,11.8,9.6,21.3,21.3,21.3h170.7c11.8,0,21.3-9.6,21.3-21.3v-128C362.7,9.6,353.1,0,341.3,0z"/>
<path class="st0" d="M213.3,213.3h-64V256c0,11.8-9.6,21.3-21.3,21.3s-21.3-9.6-21.3-21.3v-42.7h-64c-11.8,0-21.3,9.6-21.3,21.3v128
	c0,11.8,9.6,21.3,21.3,21.3h170.7c11.8,0,21.3-9.6,21.3-21.3v-128C234.7,222.9,225.1,213.3,213.3,213.3z"/>
<path class="st0" d="M469.3,213.3h-64V256c0,11.8-9.6,21.3-21.3,21.3s-21.3-9.6-21.3-21.3v-42.7h-64c-11.8,0-21.3,9.6-21.3,21.3v128
	c0,11.8,9.6,21.3,21.3,21.3h170.7c11.8,0,21.3-9.6,21.3-21.3v-128C490.7,222.9,481.1,213.3,469.3,213.3z"/>
</svg>
