<?xml version="1.0" encoding="utf-8"?>
<!-- Generator: Adobe Illustrator 22.0.1, SVG Export Plug-In . SVG Version: 6.00 Build 0)  -->
<svg version="1.1" id="Capa_1" xmlns="http://www.w3.org/2000/svg" xmlns:xlink="http://www.w3.org/1999/xlink" x="0px" y="0px"
	 viewBox="0 0 512 512" style="enable-background:new 0 0 512 512;" xml:space="preserve">
<style type="text/css">
	.st0{fill:#FFFFFF;}
</style>
<path class="st0" d="M67.5,39.9H223c4.1,0,7.9,1.6,10.7,4.4l103,102.9c2.8,2.8,4.4,6.7,4.4,10.7V442h22.3c8.3,0,15.1-6.7,15.1-15.1
	V15.1c0-8.3-6.7-15.1-15.1-15.1H82.6c-8.3,0-15.1,6.7-15.1,15.1L67.5,39.9z"/>
<path class="st0" d="M207.9,157.8V70H15.1C6.7,70,0,76.7,0,85.1v411.9c0,8.3,6.7,15.1,15.1,15.1h280.8c8.3,0,15.1-6.7,15.1-15.1
	V172.9H223C214.7,172.9,207.9,166.1,207.9,157.8L207.9,157.8z M63.6,149.4h59.1c8.3,0,15.1,6.7,15.1,15.1s-6.7,15.1-15.1,15.1
	c-6.4,0-52.7,0-59.1,0c-8.3,0-15.1-6.7-15.1-15.1C48.6,156.1,55.3,149.4,63.6,149.4z M63.6,402.5h183.7c8.3,0,15.1,6.7,15.1,15.1
	c0,8.3-6.7,15.1-15.1,15.1c-10.2,0-173.6,0-183.7,0c-8.3,0-15.1-6.7-15.1-15.1C48.6,409.2,55.4,402.5,63.6,402.5z M48.6,345.1
	c0-8.4,6.8-15.1,15.1-15.1h183.7c8.3,0,15.1,6.7,15.1,15.1c0,8.3-6.7,15.1-15.1,15.1c-10.2,0-173.6,0-183.7,0
	C55.3,360.2,48.6,353.5,48.6,345.1z M262.4,272.7c0,8.3-6.7,15.1-15.1,15.1c-10.2,0-173.6,0-183.7,0c-8.3,0-15.1-6.7-15.1-15.1
	c0-8.4,6.8-15.1,15.1-15.1h183.7C255.6,257.6,262.4,264.4,262.4,272.7z"/>
<path class="st0" d="M238,91.3v51.5h51.6L238,91.3L238,91.3z"/>
<path class="st0" d="M462.6,404l19.7,43.3c1.8,3.9,7.4,3.9,9.1,0l19.7-43.3c0.6-1.3,0.9-2.7,0.9-4.2V154.8h-50.3v245.1
	C461.7,401.3,462,402.7,462.6,404L462.6,404z"/>
<path class="st0" d="M486.9,61.8c-13.9,0-25.2,11.3-25.2,25.1v37.7H512V86.9C512,73.1,500.7,61.8,486.9,61.8z"/>
</svg>
