<?xml version="1.0" encoding="utf-8"?>
<!-- Generator: Adobe Illustrator 22.0.1, SVG Export Plug-In . SVG Version: 6.00 Build 0)  -->
<svg version="1.1" id="Layer_1" xmlns="http://www.w3.org/2000/svg" xmlns:xlink="http://www.w3.org/1999/xlink" x="0px" y="0px"
	 viewBox="0 0 512 512" style="enable-background:new 0 0 512 512;" xml:space="preserve">
<style type="text/css">
	.st0{fill:#FFFFFF;}
</style>
<path class="st0" d="M420.6,27.4V0.9h-29.9v26.5h-62.9v29.9h23.8l10,102.3h29.1v12.8c0,15.7-12.8,28.5-28.5,28.5h-90.9V46.5
	c6.5-4.7,10.7-12.3,10.7-20.8c0-14.2-11.5-25.7-25.7-25.7c-14.2,0-25.7,11.5-25.7,25.7c0,8.6,4.2,16.2,10.7,20.8V201h-90.9
	c-15.7,0-28.5-12.8-28.5-28.5v-12.8h29.1l10-102.3h23.8V27.4h-62.9V0.9H91.9v26.5H29v29.9h23.8l10,102.3h29.1v12.8
	c0,29.8,22.4,54.5,51.3,58c-18.6,26.7-16.1,63.8,7.8,87.6c8.1,8.1,18.6,12.1,29.2,12.1s21.2-4,29.2-12.1
	c7.8-7.8,12.1-18.2,12.1-29.2c0-11-4.3-21.4-12.1-29.2l-12.2-12.2L176,268.7l12.2,12.2c2.2,2.2,3.3,5,3.3,8.1s-1.2,5.9-3.3,8.1
	c-4.4,4.4-11.7,4.4-16.1,0c-15.1-15.1-15.1-39.5,0-54.6l0.1-0.1c7.3-7.3,17-11.3,27.3-11.3h0.1h41.6v281h29.9V231h41.6h0.1
	c10.3,0,20,4,27.3,11.3l0.1,0.1c15,15.1,15,39.5,0,54.6c-4.4,4.4-11.7,4.4-16.1,0s-4.4-11.7,0-16.1l12.2-12.2l-21.2-21.2l-12.2,12.2
	c-16.1,16.1-16.1,42.4,0,58.5c8.1,8.1,18.7,12.1,29.2,12.1c10.6,0,21.2-4,29.2-12.1c23.8-23.8,26.4-60.9,7.8-87.6
	c28.9-3.6,51.3-28.2,51.3-58v-12.8h29.1l10-102.3h23.8V27.4H420.6z"/>
</svg>
