<?xml version="1.0" encoding="utf-8"?>
<!-- Generator: Adobe Illustrator 22.0.1, SVG Export Plug-In . SVG Version: 6.00 Build 0)  -->
<svg version="1.1" id="Capa_1" xmlns="http://www.w3.org/2000/svg" xmlns:xlink="http://www.w3.org/1999/xlink" x="0px" y="0px"
	 viewBox="0 0 512 512" style="enable-background:new 0 0 512 512;" xml:space="preserve">
<style type="text/css">
	.st0{fill:#FFFFFF;}
</style>
<g>
	<g>
		<path class="st0" d="M271,213.8v84.5c17.4-6.2,30-22.7,30-42.2S288.4,220,271,213.8z"/>
	</g>
</g>
<g>
	<g>
		<path class="st0" d="M436,181c-8.3,0-15,6.7-15,15v120c0,8.3,6.7,15,15,15h76V181H436z"/>
	</g>
</g>
<g>
	<g>
		<path class="st0" d="M211,256c0,19.5,12.6,36,30,42.2v-84.5C223.6,220,211,236.5,211,256z"/>
	</g>
</g>
<g>
	<g>
		<path class="st0" d="M436,151h76V76c0-8.3-6.7-15-15-15H271v121.5c34.2,7,60,37.3,60,73.5s-25.8,66.5-60,73.5V451h226
			c8.3,0,15-6.7,15-15v-75h-76c-24.8,0-45-20.2-45-45V196C391,171.2,411.2,151,436,151z"/>
	</g>
</g>
<g>
	<g>
		<path class="st0" d="M76,181H0v150h76c8.3,0,15-6.7,15-15V196C91,187.7,84.3,181,76,181z"/>
	</g>
</g>
<g>
	<g>
		<path class="st0" d="M241,182.5V61H15C6.7,61,0,67.7,0,76v75h76c24.8,0,45,20.2,45,45v120c0,24.8-20.2,45-45,45H0v75
			c0,8.3,6.7,15,15,15h226V329.5c-34.2-7-60-37.3-60-73.5S206.8,189.5,241,182.5z"/>
	</g>
</g>
</svg>
