<?xml version="1.0" encoding="utf-8"?>
<!-- Generator: Adobe Illustrator 22.0.1, SVG Export Plug-In . SVG Version: 6.00 Build 0)  -->
<svg version="1.1" id="Layer_1" xmlns="http://www.w3.org/2000/svg" xmlns:xlink="http://www.w3.org/1999/xlink" x="0px" y="0px"
	 viewBox="0 0 580.3 512" style="enable-background:new 0 0 580.3 512;" xml:space="preserve">
<style type="text/css">
	.st0{fill:#FFFFFF;}
</style>
<g>
	<g>
		<path class="st0" d="M485.7,151L251,1.7c-3.5-2.2-8-2.2-11.5,0L4.9,151c-3.1,2-4.9,5.4-4.9,9v341.3c0,5.9,4.8,10.7,10.7,10.7h160
			v-96c0-41.2,33.5-74.7,74.7-74.7S320,374.8,320,416v96h160c5.9,0,10.7-4.8,10.7-10.7V160C490.6,156.4,488.8,153,485.7,151
			L485.7,151z M128,394.7c0,5.9-4.8,10.7-10.7,10.7h-64c-5.9,0-10.7-4.8-10.7-10.7v-64c0-5.9,4.8-10.7,10.7-10.7h64
			c5.9,0,10.7,4.8,10.7,10.7V394.7z M128,266.7c0,5.9-4.8,10.7-10.7,10.7h-64c-5.9,0-10.7-4.8-10.7-10.7v-64
			c0-5.9,4.8-10.7,10.7-10.7h64c5.9,0,10.7,4.8,10.7,10.7V266.7z M245.3,85.3c17.6,0,32,14.4,32,32s-14.4,32-32,32s-32-14.4-32-32
			C213.3,99.7,227.7,85.3,245.3,85.3L245.3,85.3z M298.6,288c0,5.9-4.8,10.7-10.7,10.7h-85.3c-5.9,0-10.7-4.8-10.7-10.7v-85.3
			c0-5.9,4.8-10.7,10.7-10.7H288c5.9,0,10.7,4.8,10.7,10.7V288H298.6z M448,394.7c0,5.9-4.8,10.7-10.7,10.7h-64
			c-5.9,0-10.7-4.8-10.7-10.7v-64c0-5.9,4.8-10.7,10.7-10.7h64c5.9,0,10.7,4.8,10.7,10.7V394.7z M448,266.7
			c0,5.9-4.8,10.7-10.7,10.7h-64c-5.9,0-10.7-4.8-10.7-10.7v-64c0-5.9,4.8-10.7,10.7-10.7h64c5.9,0,10.7,4.8,10.7,10.7V266.7z"/>
	</g>
</g>
<g>
	<path class="st0" d="M565.2,503.5c0,4.7-3.8,8.5-8.5,8.5h-22c-4.7,0-8.5-3.8-8.5-8.5V371.2c0-4.7,3.8-8.5,8.5-8.5h22
		c4.7,0,8.5,3.8,8.5,8.5V503.5z"/>
</g>
<rect x="536" y="199.9" class="st0" width="19.5" height="174.1"/>
<ellipse transform="matrix(0.1602 -0.9871 0.9871 0.1602 268.7678 699.8986)" class="st0" cx="545.7" cy="192" rx="34.6" ry="34.6"/>
</svg>
