<?xml version="1.0" encoding="utf-8"?>
<!-- Generator: Adobe Illustrator 22.0.1, SVG Export Plug-In . SVG Version: 6.00 Build 0)  -->
<svg version="1.1" id="Capa_1" xmlns="http://www.w3.org/2000/svg" xmlns:xlink="http://www.w3.org/1999/xlink" x="0px" y="0px"
	 viewBox="0 0 432.1 432.1" style="enable-background:new 0 0 432.1 432.1;" xml:space="preserve">
<style type="text/css">
	.st0{fill:#FFFFFF;}
</style>
<g>
	<g>
		<path class="st0" d="M385.8,27.7c0-4.4-3.5-8-7.9-8.1c-1.2,0-2.3,0.2-3.3,0.7c-19.4,8.9-40.4,13.6-61.8,13.7
			c-33.2-0.4-65.3-11.6-91.4-32c-3-2.7-7.5-2.7-10.6,0c-26.1,20.4-58.3,31.7-91.4,32C98,33.9,77,29.2,57.6,20.3c-4-1.8-8.8,0-10.6,4
			c-0.5,1.1-0.7,2.2-0.7,3.3c0,1.7,0.6,166.6,0,221.3c0,29.3,67.8,124,165.7,182.1c2.5,1.4,5.5,1.4,8,0
			c98-58.1,166.2-152.9,165.8-182.2C385.3,194.2,385.8,29.3,385.8,27.7z M220.1,377c-2.5,1.4-5.5,1.4-8,0
			c-73.2-43.3-124-114.5-124-136.9c0.4-40.5,0-162.6,0-163.8c0-4.4,3.5-8,7.9-8.1c1.2,0,2.3,0.2,3.3,0.7c14.1,6.5,29.4,9.9,44.9,10
			c24.1-0.1,47.5-8.1,66.6-22.8c3-2.7,7.5-2.7,10.6,0c19,14.7,42.3,22.9,66.3,23.1c15.5-0.1,30.8-3.5,44.9-10c4-1.8,8.8,0,10.6,4
			c0.5,1.1,0.7,2.2,0.7,3.3c0.2,1.2-0.4,123.5,0.2,163.5C344,262.5,293.2,333.7,220.1,377z"/>
	</g>
</g>
<g>
	<path class="st0" d="M199.1,189.9v17.4h-34.9v22.5h39v17.6h-60.4v-94.8h58.4v17.6h-37v19.7H199.1z"/>
	<path class="st0" d="M292.5,247.5h-24.8l-8.6-17.2c-1.2-2.3-4-7.9-8.4-17h-0.3c-1.1,3.1-3.6,8.8-7.5,17l-7.7,17.2h-24.5l27.4-48
		l-26.5-46.9h24.6l8.3,17.3c2.6,5.4,5,10.7,7.2,15.8h0.3c1.5-4.1,3.7-9.4,6.5-15.8l8-17.3H291l-26.7,46.3L292.5,247.5z"/>
</g>
</svg>
