<?xml version="1.0" encoding="utf-8"?>
<!-- Generator: Adobe Illustrator 22.0.1, SVG Export Plug-In . SVG Version: 6.00 Build 0)  -->
<svg version="1.1" id="Layer_1" xmlns="http://www.w3.org/2000/svg" xmlns:xlink="http://www.w3.org/1999/xlink" x="0px" y="0px"
	 viewBox="0 0 512 512" style="enable-background:new 0 0 512 512;" xml:space="preserve">
<style type="text/css">
	.st0{fill:#FFFFFF;}
</style>
<g>
	<path class="st0" d="M53.8,258.9v-82.1h-0.3l-19.8,9.4l-4-18.2l27.6-12.7h19.9v103.6H53.8z"/>
	<path class="st0" d="M185,258.9h-73.5v-14.7l13.2-12c12.3-11,21-19.7,26.1-26.1c5.1-6.3,7.7-12.4,7.8-18.1c0-4.5-1.4-8.1-4.2-10.9
		c-2.8-2.8-7-4.2-12.7-4.2c-7.1,0-14.5,2.8-22.2,8.4l-6.9-17.2c9.2-7.1,20.5-10.7,33.8-10.7c11.5,0,20.4,3,26.8,9
		c6.4,6,9.6,13.8,9.6,23.5c0,8-2.4,15.5-7.2,22.5s-11.6,14.4-20.4,22.2l-9.6,8v0.3H185V258.9z"/>
	<path class="st0" d="M243.9,265.3h-16.1l34.1-115.5H278L243.9,265.3z"/>
	<path class="st0" d="M390.5,258.9h-73.5v-14.7l13.2-12c12.3-11,21-19.7,26.1-26.1c5.1-6.3,7.7-12.4,7.8-18.1
		c0-4.5-1.4-8.1-4.2-10.9c-2.8-2.8-7-4.2-12.7-4.2c-7.1,0-14.5,2.8-22.2,8.4l-6.9-17.2c9.2-7.1,20.5-10.7,33.8-10.7
		c11.5,0,20.4,3,26.8,9c6.4,6,9.6,13.8,9.6,23.5c0,8-2.4,15.5-7.2,22.5c-4.8,7-11.6,14.4-20.4,22.2l-9.6,8v0.3h39.2V258.9z"/>
	<path class="st0" d="M471.2,258.9h-22.9v-24.7h-45.9v-15.8l39-63.1h29.8V216h12.3v18.2h-12.3V258.9z M424.8,216h23.4v-22.9
		c0-3.9,0.2-10.4,0.6-19.3h-0.5c-5.7,11.4-9,17.8-9.7,19.3l-13.7,22.6L424.8,216z"/>
</g>
<g>
	<path class="st0" d="M260.3,408H232l-34.4-107.4h26.6l13.1,45.4c4.6,16,7.8,28.8,9.6,38.4h0.5c2.5-12.1,5.8-24.8,9.7-37.9
		l13.7-45.9h25.8L260.3,408z"/>
</g>
</svg>
