<?xml version="1.0" encoding="utf-8"?>
<!-- Generator: Adobe Illustrator 22.0.1, SVG Export Plug-In . SVG Version: 6.00 Build 0)  -->
<svg version="1.1" id="Layer_5" xmlns="http://www.w3.org/2000/svg" xmlns:xlink="http://www.w3.org/1999/xlink" x="0px" y="0px"
	 viewBox="0 0 512 512" style="enable-background:new 0 0 512 512;" xml:space="preserve">
<style type="text/css">
	.st0{fill:#FFFFFF;}
</style>
<path class="st0" d="M256,168h32v32h-32V168z"/>
<path class="st0" d="M160,264h48v48h-48V264z"/>
<path class="st0" d="M96,328h48v48H96V328z"/>
<path class="st0" d="M160,328h48v48h-48V328z"/>
<path class="st0" d="M160,200h48v48h-48V200z"/>
<path class="st0" d="M400,440h48v48h-48V440z"/>
<path class="st0" d="M44.9,136H208v-16H52.9L44.9,136z"/>
<path class="st0" d="M256,120h32v32h-32V120z"/>
<path class="st0" d="M256,440h48v48h-48V440z"/>
<path class="st0" d="M320,440h64v48h-64V440z"/>
<path class="st0" d="M16,162.4c0,2.1,0.6,4.1,1.8,5.8L28.3,184H208v-32H26.4C20.7,152,16,156.7,16,162.4z"/>
<path class="st0" d="M96,200h48v48H96V200z"/>
<path class="st0" d="M16,488h16v-28c0-19.8,16.2-36,36-36s36,16.2,36,36v28h16v-28c0-19.8,16.2-36,36-36s36,16.2,36,36v28h16v-96H16
	V488z"/>
<path class="st0" d="M448,32c0-4.4-3.6-8-8-8H264c-4.4,0-8,3.6-8,8v24h192V32z"/>
<path class="st0" d="M32,328h48v48H32V328z"/>
<path class="st0" d="M96,264h48v48H96V264z"/>
<path class="st0" d="M32,200h48v48H32V200z"/>
<path class="st0" d="M32,264h48v48H32V264z"/>
<path class="st0" d="M336,360h32v32h-32V360z"/>
<path class="st0" d="M416,264h32v32h-32V264z"/>
<path class="st0" d="M416,216h32v32h-32V216z"/>
<path class="st0" d="M416,168h32v32h-32V168z"/>
<path class="st0" d="M416,120h32v32h-32V120z"/>
<path class="st0" d="M416,360h32v32h-32V360z"/>
<path class="st0" d="M456,72H248c-13.2,0-24,10.8-24,24v392h16v-64h224v64h16V96C480,82.8,469.2,72,456,72z M304,408h-64V104h64V408
	z M384,408h-64V104h64V408z M464,408h-64V104h64V408z"/>
<path class="st0" d="M416,312h32v32h-32V312z"/>
<path class="st0" d="M336,312h32v32h-32V312z"/>
<path class="st0" d="M336,216h32v32h-32V216z"/>
<path class="st0" d="M256,360h32v32h-32V360z"/>
<path class="st0" d="M336,264h32v32h-32V264z"/>
<path class="st0" d="M336,120h32v32h-32V120z"/>
<path class="st0" d="M256,264h32v32h-32V264z"/>
<path class="st0" d="M256,312h32v32h-32V312z"/>
<path class="st0" d="M256,216h32v32h-32V216z"/>
<path class="st0" d="M336,168h32v32h-32V168z"/>
</svg>
