<?xml version="1.0" encoding="utf-8"?>
<!-- Generator: Adobe Illustrator 22.0.1, SVG Export Plug-In . SVG Version: 6.00 Build 0)  -->
<svg version="1.1" id="Capa_1" xmlns="http://www.w3.org/2000/svg" xmlns:xlink="http://www.w3.org/1999/xlink" x="0px" y="0px"
	 viewBox="0 0 512 512" style="enable-background:new 0 0 512 512;" xml:space="preserve">
<style type="text/css">
	.st0{fill:#FFFFFF;}
</style>
<g>
	<g>
		<path class="st0" d="M433.2,140.2L297.4,4.4c-5.9-5.9-15.4-5.9-21.2,0l-39.4,39.4l157,157l39.4-39.4
			C439,155.5,439,146,433.2,140.2z"/>
	</g>
</g>
<g>
	<g>
		<path class="st0" d="M253.8,432.4h-24.3v-13.6h38.7c25.3,0,45.9-20.6,45.9-45.9v-92.5l58.4-58.4l-157-157L87.9,192.7
			c-8.7,8.7-13.5,20.2-13.5,32.5c0,8.9,2.5,17.4,7.2,24.7c1.8,2.8,3.9,5.4,6.2,7.8l14.3,14.3c-4.2,5-6.5,11.2-6.5,17.8
			c0,7.4,2.9,14.3,8.1,19.5l11.2,11.2v52.4c0,25.3,20.6,45.9,45.9,45.9h38.7v13.6h-24.3c-35.6,0-64.6,29-64.6,64.6
			c0,8.3,6.7,15,15,15h177.7c8.3,0,15-6.7,15-15C318.4,461.4,289.4,432.4,253.8,432.4z M160.9,388.8c-8.8,0-15.9-7.2-15.9-15.9
			v-31.1c7.3,0.8,14.8-1.4,20.7-6.4l14.3,14.3c2.4,2.4,5,4.5,7.8,6.2c7.3,4.7,15.8,7.2,24.7,7.2c12.3,0,23.8-4.8,32.5-13.5
			l39.3-39.3v62.5h0c0,8.8-7.2,15.9-15.9,15.9H160.9z"/>
	</g>
</g>
</svg>
