<?xml version="1.0" encoding="utf-8"?>
<!-- Generator: Adobe Illustrator 22.0.1, SVG Export Plug-In . SVG Version: 6.00 Build 0)  -->
<svg version="1.1" id="Layer_1" xmlns="http://www.w3.org/2000/svg" xmlns:xlink="http://www.w3.org/1999/xlink" x="0px" y="0px"
	 viewBox="0 0 512 512" style="enable-background:new 0 0 512 512;" xml:space="preserve">
<style type="text/css">
	.st0{fill:#FFFFFF;}
</style>
<g>
	<g>
		<rect x="66.8" y="267.1" class="st0" width="55.7" height="44.5"/>
	</g>
</g>
<g>
	<g>
		<rect x="66.8" y="356.2" class="st0" width="55.7" height="44.5"/>
	</g>
</g>
<path class="st0" d="M155.8,0v189.2H0V512h289.4V356.2h89V512H512V0H155.8z M155.8,478.6H33.4v-256h122.4V478.6z M256,400.7h-44.5
	v-44.5H256V400.7z M256,311.7h-44.5v-44.5H256V311.7z M256,222.6h-44.5v-44.5H256V222.6z M356.2,311.7h-44.5v-44.5h44.5V311.7z
	 M356.2,222.6h-44.5v-44.5h44.5V222.6z M456.3,400.7h-44.5v-44.5h44.5V400.7z M456.3,311.7h-44.5v-44.5h44.5V311.7z M456.3,222.6
	h-44.5v-44.5h44.5V222.6z M456.3,89v44.6h-44.5h-55.6h-44.5H256h-44.5H207V51.9h249.3V89z"/>
<g>
	<path class="st0" d="M220.5,64.5h15.1L250,88.4h1.1V64.5h12.6v23.9h1.1l14.4-23.9h15.1l-19.7,25.7c3.6,0.4,6.6,1.8,8.8,4.2
		c2.2,2.4,3.9,5.7,5.3,9.8c0.2,0.6,1,3.2,2.4,7.7s2.6,7.9,3.6,10.1h-13.2c-0.9-1.8-2.3-6.1-4.2-12.7c-1-3.6-2.4-6.4-4.1-8.4
		s-4.2-3-7.5-3h-2V122h-12.6V98H249c-3.2,0-5.7,1-7.4,3s-3.1,4.8-4.2,8.4c-2.1,7-3.4,11.3-4.1,12.7h-13.1c0.7-1.7,1.4-3.5,2.1-5.4
		c0.7-1.9,1.4-4.1,2.2-6.7c0.8-2.5,1.4-4.3,1.7-5.4c1.4-4,3.1-7.3,5.3-9.7c2.1-2.4,5-4,8.6-4.7L220.5,64.5z"/>
	<path class="st0" d="M322.7,64.5h12.8v24h1.2l15.8-24h15.8l-20.1,25.6c3.5,0.9,6.2,2.4,8.2,4.7c2,2.3,3.6,5.3,5,9.1
		c3.1,9.2,5.3,15.2,6.7,18.1h-14c-0.7-1.5-2.2-5.7-4.4-12.6c-1.1-3.8-2.6-6.6-4.2-8.5c-1.7-1.9-4.1-2.9-7.4-2.9h-2.5v24.1h-12.8
		V64.5H322.7z"/>
	<path class="st0" d="M443.1,122.1h-15l-5.2-10.4c-0.7-1.4-2.5-4.8-5.1-10.3h-0.2c-0.7,1.9-2.2,5.3-4.5,10.3l-4.7,10.4h-14.9
		L410.2,93L394,64.5h15l5,10.5c1.6,3.3,3,6.5,4.4,9.6h0.2c0.9-2.5,2.2-5.7,3.9-9.6l4.9-10.5h14.9L426,92.6L443.1,122.1z"/>
</g>
</svg>
