<?xml version="1.0" encoding="utf-8"?>
<!-- Generator: Adobe Illustrator 22.0.1, SVG Export Plug-In . SVG Version: 6.00 Build 0)  -->
<svg version="1.1" id="Layer_1" xmlns="http://www.w3.org/2000/svg" xmlns:xlink="http://www.w3.org/1999/xlink" x="0px" y="0px"
	 viewBox="0 0 512 512" style="enable-background:new 0 0 512 512;" xml:space="preserve">
<style type="text/css">
	.st0{fill:#FFFFFF;}
</style>
<g>
	<g>
		<g>
			<path class="st0" d="M490.7,106.7H384c-5.9,0-10.7,4.8-10.7,10.7v341.3c0,5.9,4.8,10.7,10.7,10.7h106.7c5.9,0,10.7-4.8,10.7-10.7
				V117.3C501.3,111.4,496.6,106.7,490.7,106.7L490.7,106.7z M480,416c0,5.9-4.8,10.7-10.7,10.7h-64c-5.9,0-10.7-4.8-10.7-10.7
				v-42.7c0-5.9,4.8-10.7,10.7-10.7h64c5.9,0,10.7,4.8,10.7,10.7V416z M480,309.3c0,5.9-4.8,10.7-10.7,10.7h-64
				c-5.9,0-10.7-4.8-10.7-10.7v-42.7c0-5.9,4.8-10.7,10.7-10.7h64c5.9,0,10.7,4.8,10.7,10.7V309.3z M480,202.7
				c0,5.9-4.8,10.7-10.7,10.7h-64c-5.9,0-10.7-4.8-10.7-10.7V160c0-5.9,4.8-10.7,10.7-10.7h64c5.9,0,10.7,4.8,10.7,10.7V202.7z"/>
			<path class="st0" d="M138.7,117.3c0-5.9-4.8-10.7-10.7-10.7H21.3c-5.9,0-10.7,4.8-10.7,10.7v341.3c0,5.9,4.8,10.7,10.7,10.7H128
				c5.9,0,10.7-4.8,10.7-10.7L138.7,117.3z M117.3,416c0,5.9-4.8,10.7-10.7,10.7h-64c-5.9,0-10.7-4.8-10.7-10.7v-42.7
				c0-5.9,4.8-10.7,10.7-10.7h64c5.9,0,10.7,4.8,10.7,10.7L117.3,416L117.3,416z M117.3,309.3c0,5.9-4.8,10.7-10.7,10.7h-64
				c-5.9,0-10.7-4.8-10.7-10.7v-42.7c0-5.9,4.8-10.7,10.7-10.7h64c5.9,0,10.7,4.8,10.7,10.7L117.3,309.3L117.3,309.3z M117.3,202.7
				c0,5.9-4.8,10.7-10.7,10.7h-64c-5.9,0-10.7-4.8-10.7-10.7V160c0-5.9,4.8-10.7,10.7-10.7h64c5.9,0,10.7,4.8,10.7,10.7V202.7z"/>
			<path class="st0" d="M362.7,490.7H352v-480C352,4.8,347.2,0,341.3,0H170.7C164.8,0,160,4.8,160,10.7v480h-10.7
				c-5.9,0-10.7,4.8-10.7,10.7s4.8,10.7,10.7,10.7h213.3c5.9,0,10.7-4.8,10.7-10.7C373.3,495.4,368.6,490.7,362.7,490.7z M234.7,64
				h10.7V53.3c0-5.9,4.8-10.7,10.7-10.7c5.9,0,10.7,4.8,10.7,10.7V64h10.7c5.9,0,10.7,4.8,10.7,10.7s-4.8,10.7-10.7,10.7h-10.7V96
				c0,5.9-4.8,10.7-10.7,10.7s-10.7-4.8-10.7-10.7V85.3h-10.7c-5.9,0-10.7-4.8-10.7-10.7S228.8,64,234.7,64L234.7,64z M309.3,490.7
				H202.7v-96c0-5.9,4.8-10.7,10.7-10.7h85.3c5.9,0,10.7,4.8,10.7,10.7L309.3,490.7L309.3,490.7z M309.3,352
				c0,5.9-4.8,10.7-10.7,10.7h-85.3c-5.9,0-10.7-4.8-10.7-10.7v-85.3c0-5.9,4.8-10.7,10.7-10.7h85.3c5.9,0,10.7,4.8,10.7,10.7V352z
				 M309.3,224c0,5.9-4.8,10.7-10.7,10.7h-85.3c-5.9,0-10.7-4.8-10.7-10.7v-85.3c0-5.9,4.8-10.7,10.7-10.7h85.3
				c5.9,0,10.7,4.8,10.7,10.7V224z"/>
		</g>
	</g>
</g>
</svg>
