<?xml version="1.0" encoding="utf-8"?>
<!-- Generator: Adobe Illustrator 22.0.1, SVG Export Plug-In . SVG Version: 6.00 Build 0)  -->
<svg version="1.1" id="Capa_1" xmlns="http://www.w3.org/2000/svg" xmlns:xlink="http://www.w3.org/1999/xlink" x="0px" y="0px"
	 viewBox="0 0 512 512" style="enable-background:new 0 0 512 512;" xml:space="preserve">
<style type="text/css">
	.st0{fill:#FFFFFF;}
</style>
<g>
	<path class="st0" d="M206.9,58.3l206.9,108.9V109L206.9,0L0,109v58.3L206.9,58.3z"/>
	<path class="st0" d="M206.9,228.9c13.4,0,24.4-10.9,24.4-24.4s-10.9-24.4-24.4-24.4s-24.4,10.9-24.4,24.4S193.5,228.9,206.9,228.9z
		"/>
	<path class="st0" d="M229.8,457.9c-4.8-25.2-6.7-58.3,2.2-95.8h-75.2V512H247C240.9,498.7,234,480.2,229.8,457.9L229.8,457.9z"/>
	<path class="st0" d="M126.8,332.1h114.4c6.7-17.7,16-36.1,28.5-54.9l7.4-11l11.9,6c0.1,0.1,10.6,5.3,25.1,9.5
		c2.9-10.3,7.9-24.5,16.2-39c14.5-25.3,34.3-43.8,58.5-54.8L206.9,92.2L0,201.1V512h126.8L126.8,332.1z M206.9,150.2
		c30,0,54.3,24.4,54.3,54.3s-24.4,54.3-54.3,54.3s-54.3-24.4-54.3-54.3S177,150.2,206.9,150.2z"/>
	<path class="st0" d="M423,497.6c1.2-15.3-3-27.4-12.5-36c-16.1-14.7-26.4-28.3-32.6-38c-13.9,9.1-23.2,20.4-27.6,33.8
		c-7,20.9-1.1,43,3.1,54.5h67.1C421.6,508,422.6,503.1,423,497.6L423,497.6z"/>
	<path class="st0" d="M418,209.3c-26.4,6.5-47.1,22.7-61.8,48.3c-13,22.8-16.1,44.1-16.1,44.3l-2.2,15.6l-15.5-3
		c-13.7-2.6-26-6.8-34.6-10.2c-28.7,47.4-38.3,97.1-28.7,147.9c5.4,28.6,15.7,49.7,21.3,59.7h41.3c-4.6-16.5-7.9-40.1,0-64
		c8.4-25.1,27-44.7,55.5-58.2l14.7-7l5.7,15c0.5,1.1,8.7,19.5,33,41.8c16.6,15.2,24.2,36.4,22.1,61.5c-0.3,3.9-0.9,7.6-1.5,11h37.2
		c5-11.1,13.7-32.8,19-58.4c9.8-47.7,3.6-86.3-18.4-114.5C444.3,281.8,425.2,232.5,418,209.3L418,209.3z"/>
</g>
</svg>
