<?xml version="1.0" encoding="utf-8"?>
<!-- Generator: Adobe Illustrator 22.0.1, SVG Export Plug-In . SVG Version: 6.00 Build 0)  -->
<svg version="1.1" id="Layer_1" xmlns="http://www.w3.org/2000/svg" xmlns:xlink="http://www.w3.org/1999/xlink" x="0px" y="0px"
	 viewBox="0 0 512 512" style="enable-background:new 0 0 512 512;" xml:space="preserve">
<style type="text/css">
	.st0{fill:#FFFFFF;}
</style>
<path class="st0" d="M346,0c-38.1,0-71.7,20.4-90,51c-18.3-30.6-51.9-51-90-51H0v15c0,41.4,33.6,75,75,75c36.3,0,66.6-25.8,73.5-60
	H166c41.4,0,75,33.6,75,75v197h30V105c0-41.4,33.6-75,75-75h17.5c6.9,34.2,37.2,60,73.5,60c41.4,0,75-33.6,75-75V0H346z M299.5,332
	h-87l-15,150H151v30h210v-30h-46.5L299.5,332z"/>
</svg>
