<?xml version="1.0" encoding="utf-8"?>
<!-- Generator: Adobe Illustrator 22.0.1, SVG Export Plug-In . SVG Version: 6.00 Build 0)  -->
<svg version="1.1" id="Layer_1" xmlns="http://www.w3.org/2000/svg" xmlns:xlink="http://www.w3.org/1999/xlink" x="0px" y="0px"
	 viewBox="0 0 512 512" style="enable-background:new 0 0 512 512;" xml:space="preserve">
<style type="text/css">
	.st0{fill:#FFFFFF;}
</style>
<g>
	<path class="st0" d="M492.7,24.9H327c-10.6,0-19.3,8.6-19.3,19.3v50.8c3.6,0.9,7,2.5,10.2,4.9c13.1,9.7,15.8,28.2,6.1,41.3
		L307.8,163v58.7h48v-1.2c0-17,19.7-26.7,33.1-16.2l52.9,41.2c10.5,8.2,10.6,24.2,0,32.4l-52.9,41.2c-13.4,10.5-33.1,0.9-33.1-16.2
		v-1.2h-48v166.2c0,10.6,8.6,19.3,19.3,19.3h165.7c10.6,0,19.3-8.6,19.3-19.3V44.1C512,33.5,503.4,24.9,492.7,24.9L492.7,24.9z"/>
	<ellipse class="st0" cx="203.8" cy="77" rx="41.8" ry="41.8"/>
	<g>
		<path class="st0" d="M311.6,108.3c-8.4-6.2-20.3-4.5-26.5,3.9l-37.4,50.3l-36.1-12.4l18.5,2.4c-2.7-9.1-10.5-16.3-20.5-17.7
			l-51.8-7.2c-10.6-1.5-21.3,0.7-30.5,6.1L66,169.5c-6.2,3.6-9.8,10.5-9.3,17.7l5.9,86.3c0.7,10.5,9.8,18.3,20.2,17.6
			c10.4-0.7,18.3-9.8,17.6-20.2l-5.1-74.5l24.9-14.6l-13.6,91.9c-0.7,4.5-1.2,9.1-1.5,13.6l-4.3,63.6l-82,14.1
			c-12.4,2.1-20.7,13.9-18.6,26.3c2.1,12.4,13.9,20.7,26.3,18.6l99.6-17.2c10.3-1.8,18.1-10.4,18.8-20.9l4.7-69.4l26.9,4.4
			l26.1,55.3l11.1,104.7c1.3,12.5,12.5,21.6,25,20.2c12.5-1.3,21.6-12.5,20.2-25l-11.5-108.6c-0.3-2.5-1-5-2-7.3l-31-65.8l10.9-78.9
			L199.3,186l49.2,16.8c7.8,2.7,16.5,0,21.4-6.6l45.6-61.4C321.8,126.4,320.1,114.5,311.6,108.3z"/>
	</g>
	<path class="st0" d="M367.9,289.6v13.3c0,7,8.1,11,13.6,6.7l52.9-41.2c4.3-3.4,4.3-9.9,0-13.3l-52.9-41.2
		c-5.5-4.3-13.6-0.4-13.6,6.7v13.3h-71.5c-5,0-9,4-9,9v37.8c0,5,4,9,9,9L367.9,289.6L367.9,289.6z"/>
</g>
</svg>
