<?xml version="1.0" encoding="utf-8"?>
<!-- Generator: Adobe Illustrator 22.0.1, SVG Export Plug-In . SVG Version: 6.00 Build 0)  -->
<svg version="1.1" id="Layer_1" xmlns="http://www.w3.org/2000/svg" xmlns:xlink="http://www.w3.org/1999/xlink" x="0px" y="0px"
	 viewBox="0 0 512 512" style="enable-background:new 0 0 512 512;" xml:space="preserve">
<style type="text/css">
	.st0{fill:#FFFFFF;}
</style>
<path class="st0" d="M210,185c0-8.3-6.7-15-15-15s-15,6.7-15,15v3H30v-3c0-8.3-6.7-15-15-15s-15,6.7-15,15v312c0,8.3,6.7,15,15,15
	h180c8.3,0,15-6.7,15-15L210,185z M150,445c0,8.3-6.7,15-15,15H75c-8.3,0-15-6.7-15-15v-31c0-24.8,20.2-45,45-45s45,20.2,45,45V445z
	 M150,324c0,8.3-6.7,15-15,15H75c-8.3,0-15-6.7-15-15v-31c0-24.8,20.2-45,45-45s45,20.2,45,45V324z"/>
<path class="st0" d="M497,337H240v160c0,5.2-0.9,10.2-2.5,14.9h32.3V441c0-24.8,20.2-45,45-45s45,20.2,45,45v70.9h30V441
	c0-24.8,20.2-45,45-45s45,20.2,45,45v70.9H497c8.3,0,15-6.7,15-15V352C512,343.7,505.3,337,497,337z"/>
<path class="st0" d="M105,278c-8.3,0-15,6.7-15,15v16h30v-16C120,284.7,113.3,278,105,278z"/>
<path class="st0" d="M105,399c-8.3,0-15,6.7-15,15v16h30v-16C120,405.7,113.3,399,105,399z"/>
<path class="st0" d="M120,22.6V15c0-8.3-6.7-15-15-15S90,6.7,90,15v7.6C72.5,28.8,60,45.4,60,65h90C150,45.4,137.5,28.8,120,22.6z"
	/>
<path class="st0" d="M60,95h90v63H60V95z"/>
</svg>
