<?xml version="1.0" encoding="utf-8"?>
<!-- Generator: Adobe Illustrator 22.0.1, SVG Export Plug-In . SVG Version: 6.00 Build 0)  -->
<svg version="1.1" id="Capa_1" xmlns="http://www.w3.org/2000/svg" xmlns:xlink="http://www.w3.org/1999/xlink" x="0px" y="0px"
	 viewBox="0 0 512 512" style="enable-background:new 0 0 512 512;" xml:space="preserve">
<style type="text/css">
	.st0{fill:#FFFFFF;}
</style>
<g>
	<g>
		<polygon class="st0" points="51.2,187.7 51.2,235.4 98.9,187.7 		"/>
	</g>
</g>
<g>
	<g>
		<path class="st0" d="M93.9,281.6c-4.7,0-8.5,3.8-8.5,8.5v8.5h17.1v-8.5C102.4,285.4,98.6,281.6,93.9,281.6z"/>
	</g>
</g>
<g>
	<g>
		<path class="st0" d="M503.5,93.9c4.7,0,8.5-3.8,8.5-8.5V59.7c0-9.4-7.6-17.1-17.1-17.1H17.1C7.6,42.7,0,50.3,0,59.7v366.9
			c0,1.2,0.3,2.4,0.8,3.6c-0.5,1.6-0.8,3.3-0.8,5v25.6c0,4.7,3.8,8.5,8.5,8.5h494.9c4.7,0,8.5-3.8,8.5-8.5v-25.6
			c0-9.4-7.6-17.1-17.1-17.1h-34.1v-8.5c18.3,0.5,33.6-13.9,34.1-32.2c0-0.6,0-1.3,0-1.9v-51.2c0.9-22.7-16.8-41.8-39.5-42.7
			c-1,0-2.1,0-3.1,0c0-9.4-7.6-17.1-17.1-17.1h-17.1c-9.4,0-17.1,7.6-17.1,17.1v17.1c0,9.4,7.6,17.1,17.1,17.1v17.1h-8.5
			c-9.4,0-17.1,7.6-17.1,17.1v68.3h-17.1V230.4h59.7c9.4,0,17.1-7.6,17.1-17.1v-17.1c0-9.4-7.6-17.1-17.1-17.1H264.5
			c-9.4,0-17.1,7.6-17.1,17.1v17.1c0,9.4,7.6,17.1,17.1,17.1h59.7v187.7h-17.1v-68.3c0-9.4-7.6-17.1-17.1-17.1h-8.5v-17.1
			c9.4,0,17.1-7.6,17.1-17.1v-17.1c0-9.4-7.6-17.1-17.1-17.1h-17.1c-9.4,0-17.1,7.6-17.1,17.1v0.9c-20.5,3-35.3,21.1-34.1,41.8v51.2
			c-0.4,15.7,10.3,29.6,25.6,33.2v9.4h-51.2V93.9H503.5z M34.1,179.2c0-4.7,3.8-8.5,8.5-8.5h102.4c4.7,0,8.5,3.8,8.5,8.5v128
			c0,4.7-3.8,8.5-8.5,8.5H42.7c-4.7,0-8.5-3.8-8.5-8.5C34.1,307.2,34.1,179.2,34.1,179.2z M452.3,298.7c13.4-0.7,24.9,9.6,25.6,23
			c0,0.9,0,1.7,0,2.6v51.2c0.6,8.9-6.1,16.5-15,17.1c-0.7,0-1.4,0-2.1,0v-42.7c0-9.4-7.6-17.1-17.1-17.1h-8.5v-17.1
			C444.6,315.7,452.3,308.1,452.3,298.7z M418.1,281.6h17.1l0,17.1h-17.1V281.6z M264.5,281.6h17.1l0,17.1h-17.1V281.6z
			 M230.4,375.5v-51.2c-1-11.2,6.3-21.5,17.2-24.3c0.7,8.9,8,15.7,16.9,15.8v17.1H256c-9.4,0-17.1,7.6-17.1,17.1v40.8
			C233.5,387.6,230.2,381.7,230.4,375.5z M247.5,435.2h247.5v17.1H17.1v-17.1H247.5z"/>
	</g>
</g>
<g>
	<g>
		<path class="st0" d="M123,187.7l-71.8,71.8v39.1h17.1v-8.5c0-14.1,11.5-25.6,25.6-25.6c14.1,0,25.6,11.5,25.6,25.6v8.5h17.1V187.7
			H123z"/>
	</g>
</g>
</svg>
