<?xml version="1.0" encoding="utf-8"?>
<!-- Generator: Adobe Illustrator 22.0.1, SVG Export Plug-In . SVG Version: 6.00 Build 0)  -->
<svg version="1.1" id="Capa_1" xmlns="http://www.w3.org/2000/svg" xmlns:xlink="http://www.w3.org/1999/xlink" x="0px" y="0px"
	 viewBox="0 0 384 384" style="enable-background:new 0 0 384 384;" xml:space="preserve">
<style type="text/css">
	.st0{fill:#4AB2F9;}
</style>
<g>
	<g>
		<g>
			<path class="st0" d="M275.3,140.7c-6.2-6.2-16.4-6.2-22.6,0L184,209.4l-28.7-28.7c-6.2-6.2-16.4-6.2-22.6,0
				c-6.2,6.2-6.2,16.4,0,22.6l40,40c3.1,3.1,7.2,4.7,11.3,4.7s8.2-1.6,11.3-4.7l80-80C281.6,157.1,281.6,146.9,275.3,140.7z"/>
		</g>
	</g>
</g>
<g>
	<g>
		<g>
			<path class="st0" d="M368,176c-8.8,0-16,7.2-16,16c0,88.2-71.8,160-160,160S32,280.2,32,192S103.8,32,192,32
				c43,0,83.3,16.8,113.5,47.3c6.2,6.3,16.4,6.3,22.6,0.1c6.3-6.2,6.3-16.4,0.1-22.6C291.9,20.1,243.5,0,192,0C86.1,0,0,86.1,0,192
				s86.1,192,192,192s192-86.1,192-192C384,183.2,376.8,176,368,176z"/>
		</g>
	</g>
</g>
</svg>
