<?xml version="1.0" encoding="utf-8"?>
<!-- Generator: Adobe Illustrator 22.0.1, SVG Export Plug-In . SVG Version: 6.00 Build 0)  -->
<svg version="1.1" id="Слой_1" xmlns="http://www.w3.org/2000/svg" xmlns:xlink="http://www.w3.org/1999/xlink" x="0px" y="0px"
	 viewBox="0 0 2236.6 415" style="enable-background:new 0 0 2236.6 415;" xml:space="preserve">
<style type="text/css">
	.st0{fill:#FFFFFF;}
</style>
<g id="XMLID_7_">
	<path id="XMLID_52_" class="st0" d="M182.4,133.8c-2.5-5.1-7.7-8.3-13.3-8.3c-12.2,0-24.5,0.1-36.7,0.1c3.1-4.4,6.1-8.7,9.2-13.1
		l23.1-33.6c4.6-6.7,2.9-16-3.8-20.6c-6.7-4.6-16-2.9-20.6,3.8l-48,69.8c-3.1,4.5-3.5,10.4-0.9,15.3c2.6,4.9,7.6,7.9,13.1,7.9
		c11.4-0.2,22.8-0.3,34.2-0.5c-4,5.3-8.1,10.6-12.1,15.8L105.5,197c-5.1,6.4-3.9,15.7,2.5,20.8c2.7,2.1,5.9,3.2,9.2,3.2
		c4.4,0,8.7-1.9,11.7-5.7l51.8-65.9C184.2,145,184.8,138.9,182.4,133.8z"/>
	<g id="XMLID_12_">
		<path id="XMLID_13_" class="st0" d="M421.4,99.1c13.7,0,25.9,4,36,11.7c3.4,2.8,5.9,5,7.7,6.6c6.6,5.6,13.7,4.6,18.6-0.2
			c2.6-2.7,4-6,4-9.6c0-3.1-1.3-6.1-3.9-9.1c-6.9-8-16.5-14.5-28.7-19.4c-11.3-4.4-22.6-6.6-33.7-6.6c-24.1,0-45,8.7-62.2,25.8
			c-17.1,17.1-25.8,38-25.8,62.1c0,24.2,8.7,45.1,25.8,62.3s38,25.8,62.2,25.8c11.1,0,22.4-2.2,33.7-6.6
			c12.1-4.9,21.8-11.4,28.6-19.4c2.6-2.9,3.9-6,3.9-9c0-3.6-1.4-6.9-4-9.6c-4.8-4.8-12-5.8-18.5-0.3c-3.6,3-6.2,5.2-7.6,6.5
			c-10.2,7.8-22.4,11.7-36.1,11.7c-17,0-31.2-5.9-43.3-18c-12.1-12.1-18-26.3-18-43.4c0-17,5.9-31.2,18-43.3
			C390.2,104.9,404.3,99.1,421.4,99.1z"/>
		<path id="XMLID_99_" class="st0" d="M642.4,72.4c-4.2,0-8,2.1-11.3,6.4l-91.2,117.4V85.8c0-8.4-5-13.4-13.5-13.4
			c-8.4,0-13.4,5-13.4,13.4v149.2c0,8.4,5.1,13.5,13.7,13.5c4.1,0,7.9-2.1,11.2-6.3l91.4-117.5v110.4c0,8.4,5,13.4,13.3,13.4
			c8.4,0,13.4-5,13.4-13.4V85.9C656,77.5,650.9,72.4,642.4,72.4z"/>
		<path id="XMLID_116_" class="st0" d="M840.8,84.3c-1.7-7.6-6.6-11.9-13.5-11.9c-3.2,0-9.2,1.2-12.8,9.4l-36.9,86l-36.9-86
			c-3.5-8.2-9.5-9.4-12.8-9.4c-6.9,0-11.8,4.4-13.4,11.9l-32.7,147.4c-0.4,1.2-0.6,2.4-0.6,3.7c0,8.2,5.1,13,13.6,13
			c6.7,0,11.4-3.8,12.8-10.5l24.2-109l32.9,76.8c3.5,8.3,9.6,9.6,12.9,9.6c3.3,0,9.3-1.2,12.8-9.6l32.8-76.6L847.5,238
			c1.4,6.7,6.1,10.5,12.8,10.5c8.5,0,13.6-4.9,13.6-13c0-1-0.1-2.1-0.4-3.1L840.8,84.3z"/>
		<path id="XMLID_282_" class="st0" d="M976.1,99.1c13.7,0,25.9,4,36,11.7c3.4,2.8,5.9,5,7.7,6.6c6.6,5.6,13.7,4.6,18.6-0.2
			c2.6-2.7,4-6,4-9.6c0-3.1-1.3-6.1-3.9-9.1c-6.9-8-16.5-14.5-28.7-19.4c-11.3-4.4-22.6-6.6-33.7-6.6c-24.1,0-45,8.7-62.2,25.8
			c-17.1,17.1-25.8,38-25.8,62.1c0,24.2,8.7,45.1,25.8,62.3c17.1,17.1,38,25.8,62.2,25.8c11.1,0,22.4-2.2,33.7-6.6
			c12.1-4.9,21.8-11.4,28.6-19.4c2.6-2.9,3.9-6,3.9-9c0-3.6-1.4-6.9-4-9.6c-4.8-4.8-12-5.8-18.5-0.3c-3.6,3-6.2,5.2-7.6,6.5
			c-10.2,7.8-22.4,11.7-36.1,11.7c-17,0-31.2-5.9-43.3-18c-12.1-12.1-18-26.3-18-43.4c0-17,5.9-31.2,18-43.3
			C944.9,104.9,959,99.1,976.1,99.1z"/>
		<path id="XMLID_283_" class="st0" d="M1197.1,72.4c-4.2,0-8,2.1-11.3,6.4l-91.2,117.4V85.8c0-8.4-5-13.4-13.5-13.4
			c-8.4,0-13.4,5-13.4,13.4v149.2c0,8.4,5.1,13.5,13.7,13.5c4.1,0,7.9-2.1,11.2-6.3l91.4-117.5v110.4c0,8.4,5,13.4,13.3,13.4
			c8.4,0,13.4-5,13.4-13.4V85.9C1210.7,77.5,1205.6,72.4,1197.1,72.4z"/>
		<path id="XMLID_284_" class="st0" d="M1348.8,72.4h-99.4c-8.4,0-13.4,5-13.4,13.4c0,8.3,5,13.3,13.4,13.3h36.4v136
			c0,8.4,5,13.4,13.3,13.4c8.3,0,13.3-5,13.3-13.4v-136h36.4c8.4,0,13.4-5,13.4-13.3C1362.1,77.4,1357.1,72.4,1348.8,72.4z"/>
		<path id="XMLID_285_" class="st0" d="M1511.4,72.4c-4.2,0-8,2.1-11.2,6.4l-91.3,117.4V85.8c0-8.4-5-13.4-13.5-13.4
			c-8.4,0-13.4,5-13.4,13.4v149.2c0,8.4,5.1,13.5,13.7,13.5c4.1,0,7.9-2.1,11.2-6.3l91.4-117.5v110.4c0,8.4,5,13.4,13.3,13.4
			c8.4,0,13.4-5,13.4-13.4V85.9C1525,77.5,1519.9,72.4,1511.4,72.4z"/>
		<path id="XMLID_286_" class="st0" d="M1651.1,81.4c-3.6-7.4-8.9-9-12.7-9c-3.8,0-9.1,1.6-12.7,8.9L1551.9,229
			c-1.1,2-1.6,4.1-1.6,6.3c0,3.6,1.5,6.9,4.4,9.4c2.7,2.4,5.9,3.6,9.5,3.6c5.1,0,9.2-2.6,11.6-7.3l62.6-125.2l62.6,125.2
			c2.4,4.7,6.5,7.3,11.7,7.3c3.4,0,6.6-1.3,9.3-3.6c2.9-2.5,4.4-5.8,4.4-9.4c0-2.3-0.6-4.4-1.7-6.2L1651.1,81.4z"/>
		<path id="XMLID_289_" class="st0" d="M1841.4,81.4c-3.6-7.4-8.9-9-12.7-9c-3.8,0-9.1,1.6-12.7,8.9l-73.8,147.6
			c-1.1,2-1.6,4.2-1.6,6.4c0,3.6,1.5,6.9,4.4,9.5c2.7,2.4,5.9,3.7,9.5,3.7c5.1,0,9.2-2.6,11.6-7.3l21.2-42.4c0,0,0,0,0.1,0h82.7
			c0,0,0,0,0.1,0l21.2,42.4c2.4,4.7,6.5,7.3,11.7,7.3c3.4,0,6.6-1.3,9.3-3.6c2.9-2.5,4.4-5.8,4.4-9.4c0-2.3-0.6-4.4-1.7-6.2
			L1841.4,81.4z M1856.8,172h-56.1l28.1-56.1L1856.8,172z"/>
		<path id="XMLID_290_" class="st0" d="M1993.4,58.5c7.4,4.9,14.2,7.4,20.4,7.4c10.4,0,21-6,32.4-18.3c4.1-4.4,6-8.1,6-11.6
			c0-3.6-1.5-6.9-4.3-9.5c-2.7-2.5-6-3.9-9.5-3.9c-3.9,0-8.2,2.9-15,9.9c-6.1,6.3-9,6.8-9.8,6.8c-0.5,0-3.4-0.3-9.7-6.8
			c-6.8-7-11.1-9.9-15-9.9c-3.5,0-6.7,1.3-9.4,3.9c-2.7,2.6-4.2,5.9-4.2,9.4c0,2.6,1,5.4,2.9,8.1C1982,49.4,1987.1,54.2,1993.4,58.5
			z"/>
		<path id="XMLID_291_" class="st0" d="M2071.6,72.4c-4.2,0-8,2.1-11.3,6.4l-91.2,117.4V85.8c0-8.4-5-13.4-13.5-13.4
			c-8.4,0-13.4,5-13.4,13.4v149.2c0,8.4,5.1,13.5,13.7,13.5c4.1,0,7.9-2.1,11.2-6.3l91.4-117.5v110.4c0,8.4,5,13.4,13.3,13.4
			c8.4,0,13.4-5,13.4-13.4V85.9C2085.2,77.5,2080.1,72.4,2071.6,72.4z"/>
		<path id="XMLID_292_" class="st0" d="M2223.3,72.4h-99.4c-8.4,0-13.4,5-13.4,13.4c0,8.3,5,13.3,13.4,13.3h36.4v136
			c0,8.4,5,13.4,13.3,13.4c8.3,0,13.3-5,13.3-13.4v-136h36.4c8.4,0,13.4-5,13.4-13.3C2236.6,77.4,2231.6,72.4,2223.3,72.4z"/>
	</g>
	<g id="XMLID_14_">
		<path id="XMLID_295_" class="st0" d="M269.8,107.6c-10.5-46.8-42.3-73.4-55.5-82.7C184.7,4.1,154.7,0.6,143.2,0.1
			C131.9-0.4,102.4,0.3,71,17.8c-27.8,15.5-43.7,37-50.8,48.4C3.9,92.8,0.6,118.4,0.1,131.4c-1.4,33.8,10.7,58.1,15.3,67.3
			c4.2,8.5,13,26.1,32,42.6c7.8,6.7,29.2,23,59.6,28.6c33.5,6.2,60.9,2.4,62.1,2.2l3.3-0.5c6.1-0.9,12.4-1.9,15,0.1
			c1.9,1.5,3.2,5.2,3.7,10.3c0.5,6.5,6.1,11.7,12.7,11.7l1.1,0c3.4-0.3,6.5-1.9,8.7-4.5c2.2-2.6,3.2-5.9,3-9.3
			c-1.1-12.7-5.6-22.2-13.5-28.3c-11.3-8.7-24.7-6.7-34.7-5.1l-2.8,0.4c-0.2,0-24.8,3.3-53.8-2.1c-24.3-4.5-41.4-17.5-47.6-22.9
			c-15.2-13.1-22.4-27.6-25.9-34.6c-3.8-7.6-13.7-27.6-12.6-55c0.4-10.5,3.1-31.2,16.4-52.8c5.7-9.3,18.7-26.8,41.5-39.5
			C109,25.8,132.9,25.2,142,25.6c9.3,0.4,33.5,3.3,57.6,20.2c10.8,7.6,36.7,29.3,45.3,67.4c6.2,27.7,0.1,50.1-2.8,58.4
			c-6.9,19.6-18.3,33.1-26.7,41.1c-5.1,4.8-5.4,12.9-0.5,18c4.8,5.1,12.9,5.4,18,0.5c15-14.2,26.5-31.9,33.3-51.2
			C269.8,169.7,277.4,141.8,269.8,107.6z M203.7,288.2L203.7,288.2L203.7,288.2L203.7,288.2z"/>
		<path id="XMLID_296_" class="st0" d="M154.6,382.2c-6.2,0-11.3,4.6-11.3,10c-0.3,0.7-2.8,2.3-6.8,2.3c-4,0-6.5-1.7-6.7-2.1
			c0-5.6-5.1-10.2-11.3-10.2c-6.2,0-11.3,4.6-11.3,10.2c0,12.4,13.2,22.6,29.3,22.6s29.3-10.1,29.3-22.6
			C165.9,386.8,160.8,382.2,154.6,382.2z"/>
		<path id="XMLID_297_" class="st0" d="M187.4,296.8H95.2c-1.9,0-3.1-0.1-4-0.3c-2.1-0.4-4.1-0.7-5.9-2.1c-1.6-1.2-2.3-2.6-2.4-2.9
			c-0.6-1.4-0.6-2.7-0.5-3.5c0.4-2.6-0.3-5.1-1.8-7.2c-1.7-2.2-4.3-3.7-7.1-4.1c-5.7-0.7-11,3-11.8,8.4c-0.5,3.3-0.6,8.5,1.9,14.1
			c1,2.3,3.5,6.8,8.6,10.7c5.9,4.5,11.9,5.5,15.2,6.1c0.9,0.2,1.8,0.3,2.4,0.3c0.9,0.2,1.6,0.3,2.4,0.3h95.2c2.2,0,4,1.6,4,3.5
			c0,1.6-1.3,3.1-2.5,3.4H95.2c-1,0-2,0.1-3,0.2c-1.5,0-3,0.3-4,0.8c-10.6,2.9-18,12.1-18,22.5c0,11.1,8.4,20.7,19.5,22.8
			c1.2,0.4,2.3,0.6,3.5,0.6h98l0,0h2.3c5.5,0,9.9-4.5,9.9-9.9c0-5.3-4.2-9.5-9.4-9.8l0-0.2H95.2c-2.2,0-4-1.6-4-3.5
			c0-1.6,1.3-3.1,2.5-3.4h93.7c1,0,2-0.1,3-0.2c1.5,0,3-0.3,4-0.8c10.6-2.9,18-12.1,18-22.5C212.4,307.3,201.2,296.8,187.4,296.8z"
			/>
	</g>
	<g id="XMLID_15_">
		<path id="XMLID_16_" class="st0" d="M385.7,304.6c-4.3,1.7-7.8,4-10.1,6.9c-1.1,1.3-1.6,2.6-1.6,4c0,1.6,0.6,3.1,1.8,4.3
			c2.2,2.2,5.5,2.4,8.2,0.1c1.1-0.9,1.9-1.6,2.1-1.9c3.2-2.6,6.9-3.8,11.3-3.8c4.8,0,8.8,1.5,12.4,4.7c2.7,2.3,4.5,5,5.5,8.2h-35.4
			c-3.6,0-5.9,2.3-5.9,5.9c0,3.6,2.3,5.9,5.9,5.9h35.4c-1,3.2-2.8,5.9-5.4,8.2c-3.6,3.2-7.7,4.7-12.4,4.7c-4.4,0-8.1-1.2-11.3-3.7
			c-1-0.8-1.7-1.5-2.2-1.9c-2.7-2.3-6-2-8.2,0.1c-1.2,1.2-1.8,2.6-1.8,4.3c0,1.4,0.6,2.8,1.6,3.9c2.4,2.9,5.9,5.2,10.1,6.8
			c3.9,1.6,7.9,2.3,11.7,2.3c8.4,0,15.7-3,21.7-9c6-6,9-13.3,9-21.7c0-8.4-3-15.7-9-21.7C410.4,302.6,398.2,299.8,385.7,304.6z"/>
		<path id="XMLID_200_" class="st0" d="M474.7,302.3c-3.6,0-5.9,2.3-5.9,5.9v18.8h-21.2v-18.8c0-3.6-2.3-5.9-5.9-5.9
			c-3.6,0-5.9,2.3-5.9,5.9v49.5c0,3.6,2.3,5.9,5.9,5.9c3.6,0,5.9-2.3,5.9-5.9V339h21.2v18.8c0,3.6,2.3,5.9,5.9,5.9
			c3.6,0,5.9-2.3,5.9-5.9v-49.5C480.6,304.7,478.3,302.3,474.7,302.3z"/>
		<path id="XMLID_202_" class="st0" d="M525.3,314.2c3.6,0,5.9-2.3,5.9-5.9c0-3.6-2.3-5.9-5.9-5.9h-27.5c-1.6,0-3,0.6-4.2,1.8
			c-1.2,1.1-1.8,2.6-1.8,4.2v49.5c0,1.6,0.6,3,1.8,4.2c1.2,1.2,2.6,1.8,4.2,1.8h27.5c3.6,0,5.9-2.3,5.9-5.9c0-3.6-2.3-5.9-5.9-5.9
			h-21.6V339h16.1c3.6,0,5.9-2.3,5.9-5.9c0-3.6-2.3-5.9-5.9-5.9h-16.1v-13H525.3z"/>
		<path id="XMLID_207_" class="st0" d="M558.4,302.3h-13.7c-1.6,0-3,0.6-4.2,1.8c-1.2,1.1-1.8,2.6-1.8,4.2v49.5
			c0,3.6,2.3,5.9,5.9,5.9c3.6,0,5.9-2.3,5.9-5.9v-16.1h7.8c5.4,0,10.1-1.9,13.9-5.8c3.8-3.8,5.8-8.5,5.8-13.9
			c0-5.4-1.9-10.1-5.8-13.9C568.5,304.3,563.8,302.3,558.4,302.3z M564,327.6c-1.6,1.5-3.4,2.3-5.5,2.3h-7.8v-15.7h7.8
			c2.2,0,4,0.8,5.5,2.3c1.6,1.6,2.3,3.3,2.3,5.6C566.3,324.2,565.5,326,564,327.6z"/>
		<path id="XMLID_208_" class="st0" d="M619.1,302.3h-27.5c-1.6,0-3,0.6-4.2,1.8c-1.2,1.1-1.8,2.6-1.8,4.2v49.5
			c0,3.6,2.3,5.9,5.9,5.9c3.6,0,5.9-2.3,5.9-5.9v-43.6h21.6c3.6,0,5.9-2.3,5.9-5.9C625,304.7,622.7,302.3,619.1,302.3z"/>
		<path id="XMLID_211_" class="st0" d="M657.8,302.3c-8.4,0-15.7,3-21.7,9c-6,6-9,13.3-9,21.7c0,8.4,3,15.7,9,21.7
			c6,6,13.3,9,21.7,9s15.7-3,21.7-9c6-6,9-13.3,9-21.7c0-8.4-3-15.7-9-21.7C673.5,305.4,666.2,302.3,657.8,302.3z M657.8,351.9
			c-5.2,0-9.6-1.8-13.3-5.5c-3.7-3.7-5.5-8.1-5.5-13.3c0-5.2,1.8-9.6,5.5-13.3c3.7-3.7,8.1-5.5,13.3-5.5c5.2,0,9.6,1.8,13.3,5.5
			c3.7,3.7,5.5,8.1,5.5,13.3c0,5.3-1.8,9.6-5.5,13.3C667.4,350.1,663,351.9,657.8,351.9z"/>
		<path id="XMLID_213_" class="st0" d="M704.1,304.6c-4.3,1.7-7.8,4-10.1,6.9c-1.1,1.3-1.6,2.6-1.6,4c0,1.6,0.6,3.1,1.8,4.3
			c2.2,2.2,5.5,2.4,8.2,0.1c1.1-0.9,1.9-1.6,2.1-1.9c3.2-2.6,6.9-3.8,11.3-3.8c4.8,0,8.8,1.5,12.4,4.7c2.7,2.3,4.5,5,5.5,8.2h-35.4
			c-3.6,0-5.9,2.3-5.9,5.9c0,3.6,2.3,5.9,5.9,5.9h35.4c-1,3.2-2.8,5.9-5.4,8.2c-3.6,3.2-7.7,4.7-12.4,4.7c-4.4,0-8.1-1.2-11.3-3.7
			c-1-0.8-1.7-1.5-2.2-1.9c-2.7-2.3-6-2-8.2,0.1c-1.2,1.2-1.8,2.6-1.8,4.3c0,1.4,0.6,2.8,1.6,3.9c2.4,2.9,5.9,5.2,10.1,6.8
			c3.9,1.6,7.9,2.3,11.7,2.3c8.4,0,15.7-3,21.7-9c6-6,9-13.3,9-21.7c0-8.4-3-15.7-9-21.7C728.8,302.6,716.6,299.8,704.1,304.6z"/>
		<path id="XMLID_216_" class="st0" d="M801.9,316.4c-4.4-2.8-9.4-4.6-14.9-5.4v-2.7c0-3.6-2.3-5.9-5.9-5.9s-5.9,2.3-5.9,5.9v2.7
			c-5.5,0.8-10.5,2.6-14.9,5.4c-6.6,4.2-9.9,9.8-9.9,16.6c0,6.8,3.3,12.4,9.9,16.6c4.4,2.8,9.4,4.7,14.9,5.4v2.7
			c0,3.6,2.3,5.9,5.9,5.9s5.9-2.3,5.9-5.9V355c5.5-0.8,10.5-2.6,14.9-5.4c6.6-4.2,9.9-9.8,9.9-16.6
			C811.8,326.3,808.5,320.7,801.9,316.4z M791.2,341.9c-1.3,0.5-2.7,0.9-4.1,1.2v-20c1.3,0.3,2.6,0.6,3.7,1c2.6,0.9,4.7,2.2,6.5,3.8
			c1.8,1.7,2.7,3.4,2.7,5.2c0,1.8-0.8,3.5-2.6,5.1C795.7,339.7,793.7,341,791.2,341.9z M771.5,324c1.2-0.4,2.4-0.8,3.7-1v20.1
			c-1.4-0.3-2.8-0.7-4.1-1.2c-2.5-0.9-4.5-2.2-6.2-3.7c-1.7-1.7-2.6-3.3-2.6-5.1c0-1.8,0.9-3.5,2.7-5.2
			C766.7,326.2,768.9,324.9,771.5,324z"/>
		<path id="XMLID_221_" class="st0" d="M867.2,316.4c-4.4-2.8-9.4-4.6-14.9-5.4v-2.7c0-3.6-2.3-5.9-5.9-5.9c-3.6,0-5.9,2.3-5.9,5.9
			v2.7c-5.5,0.8-10.5,2.6-14.9,5.4c-6.6,4.2-9.9,9.8-9.9,16.6c0,6.8,3.3,12.4,9.9,16.6c4.4,2.8,9.4,4.7,14.9,5.4v2.7
			c0,3.6,2.3,5.9,5.9,5.9c3.6,0,5.9-2.3,5.9-5.9V355c5.5-0.8,10.5-2.6,14.9-5.4c6.6-4.2,9.9-9.8,9.9-16.6
			C877.1,326.3,873.7,320.7,867.2,316.4z M856.4,341.9c-1.3,0.5-2.7,0.9-4.1,1.2v-20c1.3,0.3,2.6,0.6,3.7,1c2.6,0.9,4.7,2.2,6.5,3.8
			c1.8,1.7,2.7,3.4,2.7,5.2c0,1.8-0.8,3.5-2.6,5.1C861,339.7,858.9,341,856.4,341.9z M836.7,324c1.2-0.4,2.4-0.8,3.7-1v20.1
			c-1.4-0.3-2.8-0.7-4.1-1.2c-2.5-0.9-4.5-2.2-6.2-3.7c-1.7-1.7-2.6-3.3-2.6-5.1c0-1.8,0.9-3.5,2.7-5.2
			C832,326.2,834.2,324.9,836.7,324z"/>
		<path id="XMLID_225_" class="st0" d="M918.1,314.2c3.6,0,5.9-2.3,5.9-5.9c0-3.6-2.3-5.9-5.9-5.9h-27.5c-1.6,0-3,0.6-4.2,1.8
			c-1.2,1.1-1.8,2.6-1.8,4.2v49.5c0,1.6,0.6,3,1.8,4.2c1.2,1.2,2.6,1.8,4.2,1.8h27.5c3.6,0,5.9-2.3,5.9-5.9c0-3.6-2.3-5.9-5.9-5.9
			h-21.6V339h16.1c3.6,0,5.9-2.3,5.9-5.9c0-3.6-2.3-5.9-5.9-5.9h-16.1v-13H918.1z"/>
		<path id="XMLID_226_" class="st0" d="M973.7,308.3c0-1.6-0.6-3-1.8-4.2c-2.3-2.3-6.1-2.3-8.4,0l-20.2,20.2v-16
			c0-3.7-2.6-6.1-6.3-5.9l-0.1-0.4v0.4c-3.3,0.2-5.5,2.5-5.5,5.9v49.5c0,3.4,2.1,5.7,5.5,5.9l0,0.6l0.1-0.6c3.8,0.1,6.3-2.2,6.3-5.9
			v-16l20.1,20.1c2.3,2.3,6,2.3,8.4,0c1.2-1.2,1.8-2.6,1.8-4.2c0-1.5-0.6-2.9-1.8-4.2L951.4,333l20.6-20.6
			C973.1,311.3,973.7,309.8,973.7,308.3z"/>
		<path id="XMLID_227_" class="st0" d="M1016.5,302.3h-33c-3.6,0-5.9,2.3-5.9,5.9c0,3.6,2.3,5.9,5.9,5.9h10.6v43.6
			c0,3.6,2.3,5.9,5.9,5.9c3.6,0,5.9-2.3,5.9-5.9v-43.6h10.6c3.6,0,5.9-2.3,5.9-5.9C1022.5,304.7,1020.1,302.3,1016.5,302.3z"/>
		<path id="XMLID_230_" class="st0" d="M1072.7,302.3c-1.3,0-3.2,0.5-4.9,2.7l-27.6,35.5v-32.2c0-3.6-2.3-5.9-6-5.9
			c-3.6,0-5.9,2.3-5.9,5.9v49.5c0,3.6,2.4,6,6.1,6c1.3,0,3.2-0.5,4.9-2.7l27.6-35.5v32.2c0,3.6,2.3,5.9,5.9,5.9
			c3.6,0,5.9-2.3,5.9-5.9v-49.5C1078.7,304.7,1076.3,302.3,1072.7,302.3z"/>
		<path id="XMLID_235_" class="st0" d="M1126.6,319.3c0-4.6-1.7-8.7-5-12c-3.3-3.3-7.3-5-12-5h-13.7c-1.6,0-3,0.6-4.2,1.8
			c-1.2,1.1-1.8,2.6-1.8,4.2v49.5c0,1.6,0.6,3,1.8,4.2c1.2,1.2,2.6,1.8,4.2,1.8h13.7c5.4,0,10.1-1.9,13.9-5.8
			c3.8-3.8,5.8-8.5,5.8-13.9c0-5.9-2.1-10.8-6.2-14.4C1125.4,326.7,1126.6,323.2,1126.6,319.3z M1114.7,319.3c0,1.4-0.5,2.6-1.5,3.6
			c-1,1-2.2,1.5-3.6,1.5h-7.8v-10.2h7.8c1.4,0,2.6,0.5,3.6,1.5C1114.3,316.7,1114.7,317.8,1114.7,319.3z M1101.8,336.2h7.8
			c2.2,0,4,0.8,5.5,2.3c1.6,1.6,2.3,3.4,2.3,5.5c0,2.2-0.7,4-2.3,5.5c-1.6,1.6-3.4,2.3-5.5,2.3h-7.8V336.2z"/>
		<path id="XMLID_237_" class="st0" d="M1175.9,302.3c-3.6,0-5.9,2.3-5.9,5.9v18.8h-21.2v-18.8c0-3.6-2.3-5.9-5.9-5.9
			c-3.6,0-5.9,2.3-5.9,5.9v49.5c0,3.6,2.3,5.9,5.9,5.9c3.6,0,5.9-2.3,5.9-5.9V339h21.2v18.8c0,3.6,2.3,5.9,5.9,5.9
			c3.6,0,5.9-2.3,5.9-5.9v-49.5C1181.8,304.7,1179.4,302.3,1175.9,302.3z"/>
		<path id="XMLID_238_" class="st0" d="M1376.5,314.2c4.3,0,7.9,1.2,11,3.5c1.1,0.9,1.9,1.6,2.5,2.2c2.8,2.4,6,2,8.2-0.2
			c1.2-1.2,1.8-2.6,1.8-4.2c0-1.4-0.5-2.7-1.6-4c-2.4-2.8-5.8-5.1-10.1-6.9c-12.4-4.8-24.7-2-33.4,6.7c-6,6-9,13.3-9,21.7
			c0,8.4,3,15.7,9,21.7c6,6,13.3,9,21.7,9c3.9,0,7.8-0.8,11.7-2.3c4.2-1.7,7.6-4,10-6.8c1.1-1.2,1.7-2.6,1.7-4c0-1.6-0.6-3-1.8-4.2
			c-2.1-2.1-5.4-2.5-8.2-0.2c-1.2,1-2.1,1.8-2.5,2.1c-3.2,2.4-6.8,3.6-11.1,3.6c-5.2,0-9.6-1.8-13.3-5.5c-3.7-3.7-5.5-8.1-5.5-13.3
			c0-5.2,1.8-9.6,5.5-13.3C1367,316,1371.3,314.2,1376.5,314.2z"/>
		<path id="XMLID_241_" class="st0" d="M1444.2,319.3c0-4.6-1.7-8.7-5-12c-3.3-3.3-7.3-5-12-5h-13.7c-1.6,0-3,0.6-4.2,1.8
			c-1.1,1.1-1.8,2.6-1.8,4.2v49.5c0,1.6,0.6,3,1.8,4.2c1.2,1.2,2.6,1.8,4.2,1.8h13.7c5.4,0,10.1-1.9,13.9-5.8
			c3.8-3.8,5.8-8.5,5.8-13.9c0-5.9-2.1-10.8-6.2-14.4C1443.1,326.7,1444.2,323.2,1444.2,319.3z M1432.4,319.3c0,1.4-0.5,2.6-1.5,3.6
			c-1,1-2.2,1.5-3.6,1.5h-7.8v-10.2h7.8c1.4,0,2.6,0.5,3.6,1.5S1432.4,317.8,1432.4,319.3z M1419.4,336.2h7.8c2.2,0,4,0.8,5.5,2.3
			c1.6,1.6,2.3,3.4,2.3,5.5c0,2.2-0.7,4-2.3,5.5c-1.6,1.6-3.4,2.3-5.5,2.3h-7.8V336.2z"/>
		<path id="XMLID_243_" class="st0" d="M1488,314.2c3.6,0,5.9-2.3,5.9-5.9c0-3.6-2.3-5.9-5.9-5.9h-27.5c-1.6,0-3,0.6-4.2,1.8
			c-1.1,1.1-1.8,2.6-1.8,4.2v49.5c0,1.6,0.6,3,1.8,4.2c1.2,1.2,2.6,1.8,4.2,1.8h27.5c3.6,0,5.9-2.3,5.9-5.9c0-3.6-2.3-5.9-5.9-5.9
			h-21.6V339h16.1c3.6,0,5.9-2.3,5.9-5.9c0-3.6-2.3-5.9-5.9-5.9h-16.1v-13H1488z"/>
		<path id="XMLID_244_" class="st0" d="M1536.7,302.3h-33c-3.6,0-5.9,2.3-5.9,5.9c0,3.6,2.3,5.9,5.9,5.9h10.6v43.6
			c0,3.6,2.3,5.9,5.9,5.9s5.9-2.3,5.9-5.9v-43.6h10.6c3.6,0,5.9-2.3,5.9-5.9C1542.7,304.7,1540.3,302.3,1536.7,302.3z"/>
		<path id="XMLID_247_" class="st0" d="M1575.5,302.3c-8.4,0-15.7,3-21.7,9c-6,6-9,13.3-9,21.7c0,8.4,3,15.7,9,21.7
			c6,6,13.3,9,21.7,9c8.4,0,15.7-3,21.7-9c6-6,9-13.3,9-21.7c0-8.4-3-15.7-9-21.7C1591.1,305.4,1583.8,302.3,1575.5,302.3z
			 M1575.5,351.9c-5.2,0-9.6-1.8-13.3-5.5c-3.7-3.7-5.5-8.1-5.5-13.3c0-5.2,1.8-9.6,5.5-13.3s8.1-5.5,13.3-5.5
			c5.2,0,9.6,1.8,13.3,5.5c3.7,3.7,5.5,8.1,5.5,13.3c0,5.3-1.8,9.6-5.5,13.3C1585,350.1,1580.7,351.9,1575.5,351.9z"/>
		<path id="XMLID_250_" class="st0" d="M1650.3,319.3c0-4.6-1.7-8.7-5-12c-3.3-3.3-7.3-5-12-5h-13.7c-1.6,0-3,0.6-4.2,1.8
			c-1.1,1.1-1.8,2.6-1.8,4.2v49.5c0,1.6,0.6,3,1.8,4.2c1.2,1.2,2.6,1.8,4.2,1.8h13.7c5.4,0,10.1-1.9,13.9-5.8
			c3.8-3.8,5.8-8.5,5.8-13.9c0-5.9-2.1-10.8-6.2-14.4C1649.1,326.7,1650.3,323.2,1650.3,319.3z M1638.5,319.3c0,1.4-0.5,2.6-1.5,3.6
			c-1,1-2.2,1.5-3.6,1.5h-7.8v-10.2h7.8c1.4,0,2.6,0.5,3.6,1.5C1638,316.7,1638.5,317.8,1638.5,319.3z M1625.5,336.2h7.8
			c2.2,0,4,0.8,5.5,2.3c1.6,1.6,2.3,3.4,2.3,5.5c0,2.2-0.7,4-2.3,5.5c-1.6,1.6-3.4,2.3-5.5,2.3h-7.8V336.2z"/>
		<path id="XMLID_252_" class="st0" d="M1762.3,314.2c3.6,0,5.9-2.3,5.9-5.9c0-3.6-2.3-5.9-5.9-5.9h-27.5c-1.6,0-3,0.6-4.2,1.8
			c-1.1,1.1-1.8,2.6-1.8,4.2v49.5c0,1.6,0.6,3,1.8,4.2c1.2,1.2,2.6,1.8,4.2,1.8h27.5c3.6,0,5.9-2.3,5.9-5.9c0-3.6-2.3-5.9-5.9-5.9
			h-21.6V339h16.1c3.6,0,5.9-2.3,5.9-5.9c0-3.6-2.3-5.9-5.9-5.9h-16.1v-13H1762.3z"/>
		<path id="XMLID_255_" class="st0" d="M1836.9,302.3h-13.7c-1.6,0-3,0.6-4.2,1.8c-1.1,1.1-1.8,2.6-1.8,4.2v49.5
			c0,3.6,2.3,5.9,5.9,5.9c3.6,0,5.9-2.3,5.9-5.9v-16.1h7.8c5.4,0,10.1-1.9,13.9-5.8c3.8-3.8,5.8-8.5,5.8-13.9
			c0-5.4-1.9-10.1-5.8-13.9C1847,304.3,1842.3,302.3,1836.9,302.3z M1842.4,327.6c-1.6,1.6-3.4,2.3-5.6,2.3h-7.8v-15.7h7.8
			c2.2,0,4,0.8,5.5,2.3c1.6,1.6,2.3,3.4,2.3,5.6C1844.7,324.2,1843.9,326,1842.4,327.6z"/>
		<path id="XMLID_256_" class="st0" d="M1897.6,314.2c3.6,0,5.9-2.3,5.9-5.9c0-3.6-2.3-5.9-5.9-5.9h-27.5c-1.6,0-3,0.6-4.2,1.8
			c-1.1,1.1-1.8,2.6-1.8,4.2v49.5c0,1.6,0.6,3,1.8,4.2c1.2,1.2,2.6,1.8,4.2,1.8h27.5c3.6,0,5.9-2.3,5.9-5.9c0-3.6-2.3-5.9-5.9-5.9
			H1876V339h16.1c3.6,0,5.9-2.3,5.9-5.9c0-3.6-2.3-5.9-5.9-5.9H1876v-13H1897.6z"/>
		<path id="XMLID_257_" class="st0" d="M1972,302.3c-3.6,0-5.9,2.3-5.9,5.9v43.6h-15.7v-43.6c0-3.6-2.3-5.9-5.9-5.9
			c-3.6,0-5.9,2.3-5.9,5.9v43.6h-15.7v-43.6c0-3.6-2.3-5.9-5.9-5.9c-3.6,0-5.9,2.3-5.9,5.9v49.5c0,3.6,2.3,5.9,5.9,5.9h55
			c3.6,0,5.9-2.3,5.9-5.9v-49.5C1977.9,304.7,1975.6,302.3,1972,302.3z"/>
		<path id="XMLID_258_" class="st0" d="M2022.6,314.2c3.6,0,5.9-2.3,5.9-5.9c0-3.6-2.3-5.9-5.9-5.9h-27.5c-1.6,0-3,0.6-4.2,1.8
			c-1.1,1.1-1.8,2.6-1.8,4.2v49.5c0,1.6,0.6,3,1.8,4.2c1.2,1.2,2.6,1.8,4.2,1.8h27.5c3.6,0,5.9-2.3,5.9-5.9c0-3.6-2.3-5.9-5.9-5.9
			H2001V339h16.1c3.6,0,5.9-2.3,5.9-5.9c0-3.6-2.3-5.9-5.9-5.9H2001v-13H2022.6z"/>
		<path id="XMLID_259_" class="st0" d="M2075.1,302.3c-3.6,0-5.9,2.3-5.9,5.9v18.8h-21.2v-18.8c0-3.6-2.3-5.9-5.9-5.9
			c-3.6,0-5.9,2.3-5.9,5.9v49.5c0,3.6,2.3,5.9,5.9,5.9c3.6,0,5.9-2.3,5.9-5.9V339h21.2v18.8c0,3.6,2.3,5.9,5.9,5.9
			c3.6,0,5.9-2.3,5.9-5.9v-49.5C2081,304.7,2078.6,302.3,2075.1,302.3z"/>
		<path id="XMLID_260_" class="st0" d="M2136.6,302.3c-1.3,0-3.2,0.5-4.9,2.7l-27.6,35.5v-32.2c0-3.6-2.3-5.9-6-5.9
			c-3.6,0-5.9,2.3-5.9,5.9v49.5c0,3.6,2.4,6,6.1,6c1.3,0,3.2-0.5,4.9-2.7l27.6-35.5v32.2c0,3.6,2.3,5.9,5.9,5.9
			c3.6,0,5.9-2.3,5.9-5.9v-49.5C2142.6,304.7,2140.3,302.3,2136.6,302.3z"/>
		<path id="XMLID_263_" class="st0" d="M2183.8,302.3H2170c-5.4,0-10.1,1.9-13.9,5.8c-3.8,3.8-5.8,8.5-5.8,13.9s1.9,10.1,5.7,13.9
			c2.5,2.5,5.3,4.2,8.5,5.1l-12.7,12.7c-1,1.2-1.6,2.6-1.6,4c0,1.6,0.6,3,1.8,4.2c2.3,2.2,5.8,2.4,8.3,0l17.4-17.4v13.2
			c0,3.6,2.3,5.9,5.9,5.9c3.6,0,5.9-2.3,5.9-5.9v-49.5C2189.7,304.7,2187.4,302.3,2183.8,302.3z M2177.8,329.8h-7.8
			c-2.2,0-4-0.7-5.6-2.3c-1.6-1.5-2.3-3.3-2.3-5.5c0-2.2,0.7-4,2.3-5.5c1.6-1.6,3.4-2.3,5.5-2.3h7.8V329.8z"/>
		<path id="XMLID_266_" class="st0" d="M1702.5,339.1c-0.8-3.3-2.6-6.4-5.2-9c-3.8-3.8-8.5-5.8-13.9-5.8h-7.8v-16.1
			c0-3.6-2.3-5.9-5.9-5.9c-3.6,0-5.9,2.3-5.9,5.9v49.5c0,1.6,0.6,3,1.8,4.2c1.1,1.1,2.6,1.8,4.2,1.8l13.7,0c5.4,0,10.1-1.9,13.9-5.8
			c2.6-2.6,4.3-5.6,5.2-9c0.3-1.6,0.4-3.2,0.4-4.8C1703,342.5,1702.8,340.8,1702.5,339.1L1702.5,339.1z M1692.3,344.1
			c0,2.5-0.9,4.5-2.6,6.3c-1.8,1.8-3.8,2.6-6.3,2.6h-8.9v-17.8h8.9c2.5,0,4.5,0.9,6.3,2.6C1691.5,339.5,1692.3,341.6,1692.3,344.1z"
			/>
		<path id="XMLID_267_" class="st0" d="M1710.4,302.3c-3.3,0-5.9,2.7-5.9,5.9v49.5c0,3.3,2.7,5.9,5.9,5.9c3.3,0,5.9-2.7,5.9-5.9
			v-49.5C1716.3,305,1713.7,302.3,1710.4,302.3z"/>
		<path id="XMLID_268_" class="st0" d="M1293.8,314.2c3.6,0,5.9-2.3,5.9-5.9c0-3.6-2.3-5.9-5.9-5.9h-27.5c-1.6,0-3,0.6-4.2,1.8
			c-1.1,1.1-1.8,2.6-1.8,4.2v49.5c0,1.6,0.6,3,1.8,4.2c1.2,1.2,2.6,1.8,4.2,1.8h27.5c3.6,0,5.9-2.3,5.9-5.9c0-3.6-2.3-5.9-5.9-5.9
			h-21.6V339h16.1c3.6,0,5.9-2.3,5.9-5.9c0-3.6-2.3-5.9-5.9-5.9h-16.1v-13H1293.8z"/>
		<path id="XMLID_271_" class="st0" d="M1233.9,339.1c-0.8-3.3-2.6-6.4-5.2-9c-3.8-3.8-8.5-5.8-13.9-5.8h-7.8v-16.1
			c0-3.6-2.3-5.9-5.9-5.9c-3.6,0-5.9,2.3-5.9,5.9v49.5c0,1.6,0.6,3,1.8,4.2c1.1,1.1,2.6,1.8,4.2,1.8l13.7,0c5.4,0,10.1-1.9,13.9-5.8
			c2.6-2.6,4.3-5.6,5.2-9c0.3-1.6,0.4-3.2,0.4-4.8C1234.4,342.5,1234.3,340.8,1233.9,339.1L1233.9,339.1z M1223.8,344.1
			c0,2.5-0.9,4.5-2.6,6.3c-1.8,1.8-3.8,2.6-6.3,2.6h-8.9v-17.8h8.9c2.5,0,4.5,0.9,6.3,2.6C1222.9,339.5,1223.8,341.6,1223.8,344.1z"
			/>
		<path id="XMLID_272_" class="st0" d="M1241.9,302.3c-3.3,0-5.9,2.7-5.9,5.9v49.5c0,3.3,2.7,5.9,5.9,5.9s5.9-2.7,5.9-5.9v-49.5
			C1247.8,305,1245.1,302.3,1241.9,302.3z"/>
	</g>
</g>
</svg>
